<svg version="1.1" id="Layer_1" xmlns="http://www.w3.org/2000/svg" xmlns:xlink="http://www.w3.org/1999/xlink" x="0px" y="0px"
	 width="100%" viewBox="0 0 145 84" enable-background="new 0 0 145 84" xml:space="preserve">
<path fill="#FFFFFF" opacity="1.000000" stroke="none" 
	d="
M146.000000,57.000000 
	C146.000000,66.324310 146.000000,75.648628 146.000000,84.979706 
	C97.722412,84.986465 49.444817,84.986465 1.083612,84.986465 
	C1.083612,57.083027 1.083612,29.165724 1.083612,1.124209 
	C49.333141,1.124209 97.666519,1.124209 145.999939,1.117575 
	C146.000000,17.761520 146.000000,34.412102 145.639999,51.348919 
	C142.385742,35.260113 139.491486,18.885069 136.507095,2.000100 
	C133.830032,2.000100 131.020157,2.198237 128.250137,1.950477 
	C124.703117,1.633218 123.282211,3.002593 122.915268,6.559464 
	C122.414185,11.416546 121.356705,16.218639 120.483162,21.034405 
	C118.338402,32.858284 116.162399,44.676498 113.951942,56.753849 
	C118.120552,56.753849 121.879326,56.753849 125.603401,56.753849 
	C126.594322,49.477654 126.597481,49.475250 133.821152,50.523064 
	C133.947647,52.527142 134.078903,54.606647 134.229980,57.000000 
	C138.399597,57.000000 142.199799,57.000000 146.000000,57.000000 
M100.436127,2.000000 
	C95.019623,2.000000 89.603111,2.000000 84.239212,2.000000 
	C84.239212,20.675970 84.239212,38.592510 84.239212,56.702854 
	C87.862503,56.702854 91.242874,56.702854 94.990250,56.702854 
	C94.990250,50.878662 94.990250,45.338303 94.990250,39.797947 
	C95.302307,39.734917 95.614372,39.671890 95.926430,39.608860 
	C97.763435,45.368229 99.600441,51.127598 101.344986,56.597107 
	C105.455391,56.597107 109.154015,56.597107 113.301155,56.597107 
	C111.381592,50.715935 109.624573,45.332760 107.867554,39.949585 
	C108.407936,40.033813 108.948326,40.118046 109.488708,40.202274 
	C110.325806,37.366779 111.718689,34.563667 111.886185,31.689154 
	C112.253464,25.386259 111.911331,19.045689 112.018486,12.723209 
	C112.240669,-0.386613 109.967392,1.997428 100.436127,2.000000 
M36.000000,11.538207 
	C36.000000,26.609669 36.000000,41.681129 36.000000,56.765415 
	C39.972908,56.765415 43.239349,56.765415 47.217628,56.765415 
	C47.217628,49.103718 47.217628,41.655003 47.217628,34.206284 
	C47.704578,34.160118 48.191532,34.113953 48.678482,34.067787 
	C50.253372,41.695000 51.828266,49.322208 53.366039,56.769669 
	C57.832226,56.769669 61.789997,56.769669 66.647507,56.769669 
	C60.334850,38.486996 57.243473,20.424849 66.937492,2.000381 
	C62.869835,2.000381 60.214027,2.133635 57.577477,1.965291 
	C54.555836,1.772358 53.177189,2.671771 52.801693,6.015540 
	C52.314770,10.351585 51.005112,14.604617 49.917542,18.859627 
	C49.421680,20.799633 48.609413,22.658768 47.940655,24.554585 
	C47.567677,24.449450 47.194702,24.344316 46.821724,24.239182 
	C46.821724,16.969418 46.821724,9.699653 46.821724,2.322412 
	C43.085712,2.322412 39.704948,2.322412 36.000000,2.322412 
	C36.000000,5.277965 36.000000,7.914586 36.000000,11.538207 
M8.901882,15.248181 
	C6.385816,28.962166 3.869750,42.676151 1.290743,56.733200 
	C5.953735,56.733200 9.367618,56.733200 12.674608,56.733200 
	C13.380209,54.310810 14.005520,52.164062 14.549006,50.298225 
	C16.860392,50.298225 18.800137,50.298225 20.700478,50.298225 
	C21.532633,57.759228 22.641880,58.300163 33.447601,56.276878 
	C30.187588,38.242699 26.926027,20.199965 23.674698,2.213830 
	C19.280968,2.213830 15.328933,2.213830 11.075033,2.213830 
	C10.359909,6.371826 9.671637,10.373692 8.901882,15.248181 
M80.000000,44.487980 
	C80.000000,30.416348 80.000000,16.344713 80.000000,2.401626 
	C75.594727,2.401626 71.880096,2.401626 68.255272,2.401626 
	C68.255272,20.716833 68.255272,38.629341 68.255272,56.686935 
	C72.229263,56.686935 75.942253,56.686935 80.000000,56.686935 
	C80.000000,52.745644 80.000000,49.113400 80.000000,44.487980 
z"/>
<path fill="#ECDF14" opacity="1.000000" stroke="none" 
	d="
M146.000000,56.583336 
	C142.199799,57.000000 138.399597,57.000000 134.229980,57.000000 
	C134.078903,54.606647 133.947647,52.527142 133.821152,50.523064 
	C126.597481,49.475250 126.594322,49.477654 125.603401,56.753849 
	C121.879326,56.753849 118.120552,56.753849 113.951942,56.753849 
	C116.162399,44.676498 118.338402,32.858284 120.483162,21.034405 
	C121.356705,16.218639 122.414185,11.416546 122.915268,6.559464 
	C123.282211,3.002593 124.703117,1.633218 128.250137,1.950477 
	C131.020157,2.198237 133.830032,2.000100 136.507095,2.000100 
	C139.491486,18.885069 142.385742,35.260113 145.639999,51.817577 
	C146.000000,53.388889 146.000000,54.777779 146.000000,56.583336 
M128.600067,36.884205 
	C126.954430,40.869526 129.583740,39.826824 132.070938,39.861664 
	C131.576874,35.507538 131.132141,31.588198 130.687408,27.668859 
	C130.429184,27.641857 130.170944,27.614855 129.912704,27.587852 
	C129.583481,30.423975 129.254257,33.260098 128.600067,36.884205 
z"/>
<path fill="#ECDF14" opacity="1.000000" stroke="none" 
	d="
M100.923859,2.000000 
	C109.967392,1.997428 112.240669,-0.386613 112.018486,12.723209 
	C111.911331,19.045689 112.253464,25.386259 111.886185,31.689154 
	C111.718689,34.563667 110.325806,37.366779 109.488708,40.202274 
	C108.948326,40.118046 108.407936,40.033813 107.867554,39.949585 
	C109.624573,45.332760 111.381592,50.715935 113.301155,56.597107 
	C109.154015,56.597107 105.455391,56.597107 101.344986,56.597107 
	C99.600441,51.127598 97.763435,45.368229 95.926430,39.608860 
	C95.614372,39.671890 95.302307,39.734917 94.990250,39.797947 
	C94.990250,45.338303 94.990250,50.878662 94.990250,56.702854 
	C91.242874,56.702854 87.862503,56.702854 84.239212,56.702854 
	C84.239212,38.592510 84.239212,20.675970 84.239212,2.000000 
	C89.603111,2.000000 95.019623,2.000000 100.923859,2.000000 
M100.997246,14.768392 
	C100.714081,9.830960 97.485435,12.666263 95.342697,12.169367 
	C95.342697,18.355864 95.342697,24.080372 95.342697,29.771433 
	C97.296402,29.771433 98.905914,29.771433 100.999672,29.771433 
	C100.999672,24.948021 100.999672,20.334217 100.997246,14.768392 
z"/>
<path fill="#ECDF14" opacity="1.000000" stroke="none" 
	d="
M36.000000,11.044706 
	C36.000000,7.914586 36.000000,5.277965 36.000000,2.322412 
	C39.704948,2.322412 43.085712,2.322412 46.821724,2.322412 
	C46.821724,9.699653 46.821724,16.969418 46.821724,24.239182 
	C47.194702,24.344316 47.567677,24.449450 47.940655,24.554585 
	C48.609413,22.658768 49.421680,20.799633 49.917542,18.859627 
	C51.005112,14.604617 52.314770,10.351585 52.801693,6.015540 
	C53.177189,2.671771 54.555836,1.772358 57.577477,1.965291 
	C60.214027,2.133635 62.869835,2.000381 66.937492,2.000381 
	C57.243473,20.424849 60.334850,38.486996 66.647507,56.769669 
	C61.789997,56.769669 57.832226,56.769669 53.366039,56.769669 
	C51.828266,49.322208 50.253372,41.695000 48.678482,34.067787 
	C48.191532,34.113953 47.704578,34.160118 47.217628,34.206284 
	C47.217628,41.655003 47.217628,49.103718 47.217628,56.765415 
	C43.239349,56.765415 39.972908,56.765415 36.000000,56.765415 
	C36.000000,41.681129 36.000000,26.609669 36.000000,11.044706 
z"/>
<path fill="#ECDF14" opacity="1.000000" stroke="none" 
	d="
M8.942623,14.811870 
	C9.671637,10.373692 10.359909,6.371826 11.075033,2.213830 
	C15.328933,2.213830 19.280968,2.213830 23.674698,2.213830 
	C26.926027,20.199965 30.187588,38.242699 33.447601,56.276878 
	C22.641880,58.300163 21.532633,57.759228 20.700478,50.298225 
	C18.800137,50.298225 16.860392,50.298225 14.549006,50.298225 
	C14.005520,52.164062 13.380209,54.310810 12.674608,56.733200 
	C9.367618,56.733200 5.953735,56.733200 1.290743,56.733200 
	C3.869750,42.676151 6.385816,28.962166 8.942623,14.811870 
M18.997290,35.547432 
	C18.510246,32.207527 18.023205,28.867626 17.429476,24.796101 
	C16.741932,30.215099 16.143871,34.928837 15.541072,39.679909 
	C18.941490,40.813114 19.188707,38.841957 18.997290,35.547432 
z"/>
<path fill="#ECDF14" opacity="1.000000" stroke="none" 
	d="
M80.000000,44.984570 
	C80.000000,49.113400 80.000000,52.745644 80.000000,56.686935 
	C75.942253,56.686935 72.229263,56.686935 68.255272,56.686935 
	C68.255272,38.629341 68.255272,20.716833 68.255272,2.401626 
	C71.880096,2.401626 75.594727,2.401626 80.000000,2.401626 
	C80.000000,16.344713 80.000000,30.416348 80.000000,44.984570 
z"/>
<path fill="#FFFFFF" opacity="1.000000" stroke="none" 
	d="
M128.762558,36.490211 
	C129.254257,33.260098 129.583481,30.423975 129.912704,27.587852 
	C130.170944,27.614855 130.429184,27.641857 130.687408,27.668859 
	C131.132141,31.588198 131.576874,35.507538 132.070938,39.861664 
	C129.583740,39.826824 126.954430,40.869526 128.762558,36.490211 
z"/>
<path fill="#FFFFFF" opacity="1.000000" stroke="none" 
	d="
M100.998459,15.244402 
	C100.999672,20.334217 100.999672,24.948021 100.999672,29.771433 
	C98.905914,29.771433 97.296402,29.771433 95.342697,29.771433 
	C95.342697,24.080372 95.342697,18.355864 95.342697,12.169367 
	C97.485435,12.666263 100.714081,9.830960 100.998459,15.244402 
z"/>
<path fill="#FFFFFF" opacity="1.000000" stroke="none" 
	d="
M18.998333,35.984035 
	C19.188707,38.841957 18.941490,40.813114 15.541072,39.679909 
	C16.143871,34.928837 16.741932,30.215099 17.429476,24.796101 
	C18.023205,28.867626 18.510246,32.207527 18.998333,35.984035 
z"/>
</svg>